# xmcd
#
# Track frame offsets:
#	150
#	13650
#	25021
#	34300
#	44899
#	55624
#	69111
#	80763
#	90568
#	102941
#	112470
#	123638
#	136856
#	147051
#	157985
#	169009
#	179326
#	188699
#	201858
#	211929
#	223596
#	238419
#
# Disc length: 3342 seconds
#
# Revision: 0
# Processed by: cddbd v1.5.1PL2 Copyright (c) Steve Scherf et al.
# Submitted via: audiograbber 1.83.01
#
DISCID=3e0d0c16
DTITLE=Donnie Elbert - The greatest Hits
DYEAR=1966
DGENRE=soul
TTITLE0=what can i do
TTITLE1=Hear my plea
TTITLE2=Believe it or not
TTITLE3=tell me so
TTITLE4=Leona
TTITLE5=have i sinned
TTITLE6=Wild child
TTITLE7=Let's do the stroll
TTITLE8=My confession of love
TTITLE9=Peek a boo
TTITLE10=I want to be loved but only by you
TTITLE11=Someone made you for me
TTITLE12=I want to be near you
TTITLE13=Come on sugar
TTITLE14=just a little bit of lovin'
TTITLE15=When you're near me
TTITLE16=Do watcha wanna
TTITLE17=I keep falling in love
TTITLE18=lily Lou
TTITLE19=Run little girl
TTITLE20=Who's gonna be
TTITLE21=I wanna be loved(outake)
EXTD=
EXTT0=
EXTT1=
EXTT2=
EXTT3=
EXTT4=
EXTT5=
EXTT6=
EXTT7=
EXTT8=
EXTT9=
EXTT10=
EXTT11=
EXTT12=
EXTT13=
EXTT14=
EXTT15=
EXTT16=
EXTT17=
EXTT18=
EXTT19=
EXTT20=
EXTT21=
PLAYORDER=
